<svg xmlns="http://www.w3.org/2000/svg" width="166.1" height="188.574" viewBox="0 0 166.1 188.574">
  <g id="logo" transform="translate(-0.291 -0.12)">
    <g id="Texas" transform="translate(0.291 9.904)">
      <path id="Path_1" data-name="Path 1" d="M90.648,174.066V173.05c.015-2.393.032-5.675-1.913-7.1a12.47,12.47,0,0,1-4.526-5.218,11.049,11.049,0,0,0-2.783-3.782,6.431,6.431,0,0,1-1.4-1.664c-.2-.492-.6-1.315-1.116-2.373-1.266-2.6-3.381-6.967-3.653-8.7a1.38,1.38,0,0,0-.27-.627l-.293-.369c-2.839-3.726-6.129-7.76-9.263-8.472s-8.106-1.172-10.087-.688c-1.922.48-5.566,2.842-5.891,8.352-1.386,1.813-2.836,3.41-4.186,3.41-1.28,0-4.869-1.822-7.248-3.026-.838-.425-1.623-.823-2.294-1.143-2.71-1.3-8.587-6.814-8.929-10.142-.369-3.548-2.051-9.77-5.033-11.358l-.835-.436a21.457,21.457,0,0,1-6.17-4.292A48.228,48.228,0,0,0,8.529,110.2c-.407-.293-.753-.551-1.008-.747a17.653,17.653,0,0,1-3.893-4.479c-.507-1.11-.715-2.581-.434-3.02.062-.094.293-.108.419-.108H45.828a1.389,1.389,0,0,0,1.389-1.389V36.3h38.7V42.3c1.055.073,1.977.176,2.777.293V34.909A1.389,1.389,0,0,0,87.3,33.52H45.828a1.389,1.389,0,0,0-1.386,1.389V99.066H3.613a3.138,3.138,0,0,0-2.754,1.389c-1.333,2.071.076,5.311.24,5.672a19.977,19.977,0,0,0,4.717,5.522c.272.211.639.48,1.072.8a44.014,44.014,0,0,1,5.859,4.9,24.216,24.216,0,0,0,6.9,4.846c.293.144.551.293.811.425,1.277.694,3.12,4.843,3.571,9.19.5,4.813,7.541,10.948,10.505,12.36.65.311,1.415.7,2.232,1.11,3.841,1.948,6.7,3.328,8.5,3.328,2.786,0,4.9-2.508,6.665-4.86a1.386,1.386,0,0,0,.278-.794c.114-4.172,2.54-5.859,3.808-6.19,1.348-.34,5.789.018,8.789.7,2.414.548,6.1,5.385,7.67,7.45l.085.111c.445,2.051,2.051,5.472,3.829,9.111.472.976.879,1.819,1.052,2.229a8.34,8.34,0,0,0,2,2.569,8.63,8.63,0,0,1,2.15,2.815,14.958,14.958,0,0,0,5.472,6.445c.8.586.788,3.574.779,4.848,0,1.412,0,2.49.768,2.968.352.524,1.321,2.37,3.97,8.551.343.8.205,1,1.148,1.731l1.667-2.194a2.992,2.992,0,0,1-.264-.63C92.44,177.131,91.315,174.907,90.648,174.066Z" transform="translate(-0.291 -33.52)" fill="#646464"/>
      <path id="Path_2" data-name="Path 2" d="M389.239,513.13a33.935,33.935,0,0,1-2.637,2.449c.331,3.056.838,4.1,1.233,6.466.457,2.713.973,5.774.735,6.609-1.008.8-2.071,1.594-3.015,2.294l-.439.325a11.593,11.593,0,0,1-.923-.879,10.833,10.833,0,0,0-1.916-1.646l-.108,3.451c.293.27,1.919,2.018,3.035,2.018a1.913,1.913,0,0,0,1.172-.416l.844-.63c1-.744,2.139-1.588,3.223-2.452,1.485-1.189,1.037-3.847.146-9.14C390.13,518.866,389.224,513.5,389.239,513.13Z" transform="translate(-270.296 -372.625)" fill="#646464"/>
      <path id="Path_3" data-name="Path 3" d="M333.56,562.753c.524.606.642.879,1.321,1.172L334.656,562Z" transform="translate(-235.927 -407.178)" fill="#646464"/>
      <path id="Path_4" data-name="Path 4" d="M295.347,98.81c-.879.586-1.819,1.172-2.777,1.723v9.794a1.386,1.386,0,0,0,.642,1.172,10.655,10.655,0,0,0,6.36,1.43c.032.035,1.125.7,1.154.735-.067-.955-.073-1.922-.126-3.331a.782.782,0,0,0-.768-.255,7.6,7.6,0,0,1-4.485-.586Z" transform="translate(-206.945 -79.683)" fill="#646464"/>
      <path id="Path_5" data-name="Path 5" d="M431.235,197.991a10.406,10.406,0,0,1-2.174-5.768c0-2.285-2.229-5.083-3.222-6.2-.076-2.051-.334-9.814,0-12.946.7-6.319-.4-10.037-3.281-11.044a1.4,1.4,0,0,0-.378-.076c-3.02-.179-7.072-2.751-9.492-4.289a10.258,10.258,0,0,0-2.473-1.365,3.2,3.2,0,0,0-2.127.293,4.081,4.081,0,0,1-2.672.258c-2.344-.448-5.9.832-8.5,1.758a19.782,19.782,0,0,1-2.159.715c-.39.038-.56-.079-1.4-.978-.205-.22-.428-.457-.677-.706a3.764,3.764,0,0,0-3.873-.653l-.173.044c-.926-.469-2.382-.094-4.529.46-.75.193-1.465.378-1.939.457-.19.029-.243.026-.727-.372a3.647,3.647,0,0,0-2.771-1.031,1.372,1.372,0,0,0-.372.085c-.961-.688-1.245-.785-1.9-1.315,0,.94-.032,2.311-.05,3.5a6.089,6.089,0,0,0,1.553.694,2.032,2.032,0,0,0,1.14-.2c.149.021.293.12.642.41a3.456,3.456,0,0,0,2.947.964c.586-.1,1.365-.293,2.177-.507a24.2,24.2,0,0,1,2.637-.586,2.612,2.612,0,0,0,2.08.073c.691-.179,1.046-.234,1.213-.067.223.223.425.437.609.639.932.993,1.9,2.024,3.706,1.843a14.314,14.314,0,0,0,2.842-.864c2.03-.732,5.429-1.96,7.031-1.652a6.738,6.738,0,0,0,4.216-.4l.419-.164c.278.129,1.011.586,1.664,1.011,2.593,1.646,6.893,4.38,10.582,4.687,1.307.642,1.793,3.627,1.3,8.062-.422,3.808-.023,13.458,0,13.866a1.383,1.383,0,0,0,.369.879c1.14,1.222,2.821,3.562,2.821,4.687,0,2.534,1.5,6.36,3.05,7.793.5.964-.129,5.765-1.1,7.066-1.019,1.359-.929,3.832-.7,6.926.041.586.1,1.324.1,1.731-.147.12-.357.275-.524.4-1.14.855-3.05,2.288-2.224,4.142.5,1.125.354,1.488.319,1.55-.07.129-.387.311-1.043.4-3.808.521-8.039,3.064-12.2,7.353a46.846,46.846,0,0,1-14.106,9.668c-1.969.8-5.716,3.756-9.545,8.373a6.152,6.152,0,0,1,1.069,2.78c.015.147,7.09-7.591,9.521-8.581a50.445,50.445,0,0,0,15.055-10.318c4.7-4.848,8.349-6.231,10.579-6.533a3.886,3.886,0,0,0,3.094-1.8,4.395,4.395,0,0,0-.094-3.767,8.866,8.866,0,0,1,1.239-1.055,5.191,5.191,0,0,0,1.348-1.26c.378-.633.316-1.465.182-3.3-.1-1.321-.322-4.418.152-5.054C431.777,206.97,433.374,199.889,431.235,197.991Z" transform="translate(-266.181 -119.631)" fill="#646464"/>
      <path id="Path_6" data-name="Path 6" d="M328.945,280.963c.105,1.517.217,1.573.328,3.091l.132.082c.328.2,5.786,2.93,10.013,5.223.015-10.819.038-35.3.059-37.053.035-3.015.023-8.666.111-15.594-2.8-2.42-7.136-4.892-12.688-7.342C327.568,247.457,328.854,279.65,328.945,280.963Z" transform="translate(-231.218 -171.994)" fill="#646464"/>
    </g>
    <g id="scalpel" transform="translate(93.906 0.12)">
      <path id="Path_7" data-name="Path 7" d="M335.385,25.519c0-5.124.047-10.253,0-15.369-.064-4.594-2.607-10.18-8.256-10.028-6.05.161-7.467,6.676-7.271,11.094.431,9.694,1.257,30.708,1.655,41.494a.081.081,0,0,0,0,.038c.015.352.026.694.038,1.025,0,0,.038-.293.1,1.465,2.8,1.093,7.658,3.143,13.174,5.921C335.048,43.513,335.318,25.519,335.385,25.519Z" transform="translate(-319.841 -0.12)" fill="#646464"/>
      <path id="Path_8" data-name="Path 8" d="M329.273,284.023l.132.082c.328.2,5.786,2.93,10.013,5.223.015-10.819.038-35.3.059-37.053.035-3.015.023-8.666.111-15.594-2.8-2.42-7.136-4.892-12.688-7.342.668,18.087,1.954,50.266,2.051,51.593C329.05,282.459,329.162,282.515,329.273,284.023Z" transform="translate(-324.832 -162.188)" fill="#646464"/>
      <path id="Path_9" data-name="Path 9" d="M347.743,470.081c-.22-3.223-1.368-4.887-1.254-8.153-1.986-.926-5.373-2.5-9.149-4.268.2,2.678.39,3.893.568,6.574.17,2.578.4,15.456.422,18.04a5.1,5.1,0,0,0,.047.806h0v.173q.311,13.769.674,27.52a11.7,11.7,0,0,0,.173,1.421,3.367,3.367,0,0,0,.741-.123,6.321,6.321,0,0,0,1.017-.586c5.5-4.019,7.857-9.729,8.3-16.25a117.576,117.576,0,0,0-.129-12.146A128.915,128.915,0,0,0,347.743,470.081Zm-5.229,19.435h0a1.532,1.532,0,0,1-1.576-1.465l-.6-17.548a1.532,1.532,0,0,1,1.465-1.576h0a1.532,1.532,0,0,1,1.579,1.465L344,487.934a1.529,1.529,0,0,1-1.485,1.582Z" transform="translate(-332.213 -323.62)" fill="#646464"/>
    </g>
    <g id="snake" transform="translate(59.24 19.326)">
      <path id="Path_10" data-name="Path 10" d="M315.587,538.63l.167,5.446c-5.007,3.556-8.338,5.68-8.724,5.824Z" transform="translate(-276.118 -400.076)" fill="#646464"/>
      <path id="Path_11" data-name="Path 11" d="M304.018,376.217c.521,5.818-3.284,8.162-10.192,13.924,0,0-.164-3.9-.709-7.494,1.409-1.655,4.142-3.378,4.031-5.669-.05-1.087-3.808-3.351-5.367-4.087-2.549-1.207-28.845-13.35-30.737-14.762-10.154-7.593,4.292-15.694,16.992-25.42l.407,11.282c-5.393,4.2-7.725,6.521-6.961,8.291.565,1.3,4.3,3.545,8.932,6.383l1,.612C283.8,360.749,303.356,368.914,304.018,376.217Z" transform="translate(-241.182 -254.482)" fill="#646464"/>
      <path id="Path_12" data-name="Path 12" d="M267.084,124.073c-.346-7.35-7.377-10.74-14.923-14.765a164.442,164.442,0,0,0-16.66-7.424c-10.886-4.189-19.807-6.753-21.169-9.624-4.248-8.959,2.458-11.8,5.742-12.559s29.258-13.253,5.332-13.6a10.63,10.63,0,0,1-1.4-.123c-12.615-1.945-12.782,5.915-18.515,12.333-5.836,6.536-8.525,19.754,15.79,27.471,14.891,4.725,26.009,9.794,30.793,14.619s2.095,7.8.067,11.2l-.135,13.769C261.173,138.1,267.43,131.423,267.084,124.073ZM222.455,68.118a10.037,10.037,0,0,1-2.432.691,2.878,2.878,0,0,1-1.535-.691Z" transform="translate(-201.513 -65.681)" fill="#646464"/>
    </g>
  </g>
</svg>
